<?xml version="1.0" standalone="no"?>
<!DOCTYPE svg PUBLIC "-//W3C//DTD SVG 20010904//EN"
 "http://www.w3.org/TR/2001/REC-SVG-20010904/DTD/svg10.dtd">
<svg version="1.0" xmlns="http://www.w3.org/2000/svg"
 width="720.000000pt" height="1024.000000pt" viewBox="0 0 720.000000 1024.000000"
 preserveAspectRatio="xMidYMid meet">
<metadata>
Created by potrace 1.16, written by Peter Selinger 2001-2019
</metadata>
<g transform="translate(0.000000,1024.000000) scale(0.100000,-0.100000)"
fill="#000000" stroke="none">
<path d="M3130 9911 c-25 -10 -79 -24 -120 -30 -41 -7 -111 -21 -155 -31 -44
-11 -113 -21 -153 -24 -53 -4 -80 -10 -99 -25 -14 -12 -39 -21 -55 -21 -16 0
-39 -5 -51 -12 -12 -6 -47 -12 -77 -14 -45 -1 -72 -11 -150 -54 -52 -29 -111
-61 -131 -71 -20 -10 -58 -35 -85 -56 -27 -20 -70 -47 -96 -60 -174 -84 -544
-438 -731 -699 -50 -70 -133 -216 -166 -293 -16 -36 -49 -109 -74 -161 -102
-216 -168 -478 -211 -830 -34 -284 -29 -578 14 -855 26 -169 39 -294 50 -490
6 -93 15 -195 20 -225 4 -30 11 -102 15 -160 3 -58 12 -130 19 -160 44 -186
146 -705 146 -744 0 -5 2 -7 5 -4 7 7 -36 261 -71 421 -24 109 -25 119 -10
142 36 54 66 51 80 -9 4 -15 15 -30 26 -33 20 -5 33 -42 24 -70 -5 -16 -4 -16
10 1 9 11 16 16 16 12 0 -5 6 -3 14 3 17 15 31 98 18 114 -5 7 -10 28 -10 48
-1 31 4 40 33 60 19 13 35 27 35 30 0 3 8 14 19 25 35 39 44 63 26 80 -18 19
-4 54 23 54 39 0 61 28 64 83 l3 52 35 0 c28 0 36 4 38 21 4 31 -43 67 -70 53
-11 -6 -30 -8 -43 -5 -18 5 -26 17 -34 56 -23 109 -22 112 84 142 47 13 50 16
53 50 2 20 -1 51 -5 69 -5 18 -5 61 0 97 7 44 6 70 -2 85 -6 12 -10 42 -9 67
1 25 -5 84 -12 133 -12 80 -14 86 -27 67 -13 -18 -16 -19 -43 -5 -15 8 -37 25
-47 38 -10 13 -24 22 -31 19 -6 -2 -12 1 -12 6 0 25 -40 -3 -51 -35 -6 -20
-20 -38 -34 -43 -40 -15 -41 -110 0 -110 21 0 19 -20 -2 -21 -24 -2 -25 -2
-45 6 -38 15 -14 -60 34 -108 9 -9 29 -22 44 -27 34 -13 25 -36 -13 -32 -19 2
-35 -4 -48 -18 -12 -13 -31 -20 -56 -20 -26 0 -42 -6 -51 -19 -25 -36 -127
-113 -139 -105 -8 4 -10 25 -5 65 4 39 1 71 -9 100 -17 49 -21 155 -4 127 7
-12 22 -18 49 -18 31 0 43 6 59 29 12 16 21 34 21 40 0 19 37 86 55 101 19 16
65 103 65 123 0 7 9 29 19 50 10 20 22 48 25 61 3 13 8 30 11 38 4 9 -2 14
-15 14 -11 0 -20 -4 -20 -8 0 -5 -11 -13 -25 -20 -18 -8 -29 -28 -45 -79 -17
-53 -26 -69 -40 -69 -10 0 -25 -7 -34 -15 -8 -8 -16 -15 -19 -15 -2 0 -23 -18
-46 -40 -67 -64 -116 -47 -109 38 2 30 7 38 27 40 19 3 22 8 18 29 -5 27 19
80 53 118 10 11 25 35 34 53 9 17 20 32 25 32 5 0 14 14 21 30 10 24 19 30 41
30 16 0 29 -4 29 -10 0 -5 11 -10 24 -10 14 0 28 5 31 10 10 16 61 12 75 -5
12 -14 18 -11 52 22 21 20 38 40 38 44 0 20 -44 19 -84 -1 -56 -29 -80 -24
-84 17 -3 25 1 33 20 38 13 4 30 13 38 20 8 7 31 15 51 19 20 4 46 15 57 25
19 16 29 17 83 9 l62 -10 37 41 c21 23 42 41 48 41 5 0 12 14 16 30 4 24 11
30 30 30 39 0 42 -20 7 -52 -26 -24 -30 -31 -21 -48 16 -29 54 -25 76 8 10 15
17 30 16 35 -1 4 5 7 13 7 17 0 20 -16 5 -25 -12 -8 -13 -45 -1 -45 18 0 18
-41 0 -64 -10 -13 -19 -37 -19 -53 0 -16 -5 -34 -10 -39 -13 -13 -3 -44 14
-44 21 0 96 61 110 89 7 14 19 45 26 69 9 29 23 48 40 57 15 8 33 21 40 30 12
15 12 19 -3 30 -20 15 -22 38 -3 54 14 12 29 1 38 -29 3 -11 8 -9 18 10 7 14
24 35 37 47 26 25 30 65 8 83 -22 18 -18 48 10 76 23 23 27 24 46 10 20 -14
24 -12 68 35 37 39 50 48 69 43 31 -9 29 -45 -5 -85 -33 -39 -56 -100 -43
-113 10 -10 80 20 80 35 0 6 8 5 21 -1 11 -7 31 -9 44 -6 12 3 37 1 55 -6 31
-10 35 -9 57 16 13 15 23 35 23 45 0 19 48 36 63 22 13 -13 -23 -98 -58 -134
-23 -23 -30 -38 -24 -48 7 -11 11 -10 22 5 9 12 20 17 30 13 15 -6 16 -24 2
-58 -8 -21 20 -43 42 -34 10 4 38 10 63 12 55 5 97 30 81 46 -10 10 -58 13
-90 5 -8 -1 -17 5 -19 15 -2 12 3 17 17 17 11 0 24 6 28 14 8 13 31 20 62 17
8 -1 11 -8 8 -20 -10 -39 62 -43 91 -6 11 14 39 33 62 44 22 10 42 22 43 27 0
5 11 14 24 21 54 28 83 48 83 58 0 6 32 11 76 13 83 2 127 17 87 28 -13 3 -20
10 -17 15 7 12 78 11 90 -1 15 -15 90 -1 115 21 22 19 33 23 57 20 6 -1 12 5
12 14 0 8 7 15 16 15 21 0 39 21 39 45 0 17 6 20 38 17 25 -2 43 3 54 13 10
11 27 15 45 13 15 -3 28 -1 28 4 0 4 11 8 24 8 18 0 26 7 31 28 10 41 44 72
79 72 35 0 46 7 62 35 8 14 32 24 87 35 42 8 84 23 96 34 14 13 21 15 21 6 0
-9 6 -8 19 4 14 13 28 16 50 11 28 -6 44 6 24 18 -5 2 -2 2 5 0 8 -1 23 -3 33
-3 11 0 18 -4 14 -9 -3 -5 -1 -12 4 -15 5 -4 11 1 13 11 3 15 5 15 18 1 8 -8
28 -14 43 -14 16 1 31 -2 33 -6 3 -4 0 -8 -5 -8 -6 0 -11 -5 -11 -11 0 -5 8
-9 18 -8 23 3 92 -12 92 -20 0 -3 34 -7 75 -8 58 -1 88 -8 131 -28 31 -15 62
-24 70 -21 7 3 20 -1 28 -9 8 -8 19 -15 24 -15 9 0 51 -33 93 -72 10 -10 16
-24 13 -33 -4 -8 -3 -23 2 -32 4 -10 8 -20 8 -23 1 -3 11 -15 23 -27 13 -13
26 -41 29 -63 4 -22 11 -43 15 -46 5 -3 9 -15 9 -28 0 -12 7 -31 15 -42 8 -10
15 -33 15 -51 0 -37 36 -140 56 -163 7 -9 18 -39 24 -67 6 -28 20 -62 32 -75
11 -13 26 -37 33 -53 7 -17 26 -43 43 -57 33 -27 102 -133 102 -155 0 -14 67
-106 81 -111 5 -2 9 -14 9 -27 0 -13 5 -27 10 -30 6 -3 10 -16 10 -28 0 -12
14 -55 30 -96 17 -40 30 -78 30 -83 0 -6 10 -32 22 -59 23 -50 57 -72 95 -63
28 7 71 -36 78 -78 9 -48 -19 -78 -73 -78 -41 0 -82 -23 -82 -46 0 -8 -4 -14
-10 -14 -20 0 -9 -23 29 -59 66 -61 72 -90 83 -411 13 -372 5 -737 -16 -779
-20 -37 -56 -64 -70 -52 -6 5 -27 11 -46 13 -27 2 -35 8 -40 28 -5 20 -13 26
-41 28 -23 2 -40 -3 -49 -12 -7 -9 -21 -16 -31 -16 -11 0 -19 -6 -19 -14 0 -7
-12 -16 -27 -19 -16 -3 -46 -11 -69 -18 -51 -15 -74 -7 -74 26 0 15 -4 24 -10
20 -6 -3 -10 -14 -10 -24 0 -10 -11 -26 -24 -35 -24 -15 -26 -14 -70 28 -36
34 -47 52 -52 87 -8 50 -28 79 -57 79 -13 0 -17 5 -13 16 3 8 2 12 -4 9 -16
-10 -12 31 4 44 12 10 18 7 31 -16 9 -15 14 -20 11 -11 -3 10 -1 20 4 23 6 4
10 22 10 41 0 31 22 80 42 94 17 13 59 83 55 94 -3 8 -99 11 -348 11 -303 0
-352 2 -408 18 -36 10 -76 27 -89 38 -14 10 -29 19 -34 19 -11 0 -32 17 -61
49 -12 13 -35 38 -51 54 -15 17 -34 44 -42 62 -7 17 -20 37 -28 45 -9 7 -16
17 -16 23 0 9 -26 69 -56 130 -8 16 -14 42 -14 59 0 16 -9 41 -20 55 -12 16
-20 41 -20 65 0 21 -7 55 -15 75 -8 19 -15 45 -15 56 0 11 -4 34 -10 51 -5 17
-21 67 -35 111 -14 44 -25 90 -25 103 0 28 -32 93 -56 113 -22 18 -240 19
-302 1 -61 -18 -92 -68 -103 -168 -5 -50 -15 -84 -26 -96 -15 -17 -18 -39 -18
-137 -1 -64 -4 -134 -8 -156 -6 -30 -5 -34 2 -17 6 12 15 22 21 22 5 0 10 8
10 18 0 10 11 33 25 52 14 19 25 42 25 52 0 9 8 22 18 27 14 7 17 18 14 45 -7
62 58 196 95 196 7 0 21 -4 31 -9 9 -6 44 -21 77 -36 86 -37 86 -37 100 -79 7
-21 23 -47 34 -57 12 -11 21 -26 21 -34 0 -8 25 -66 55 -130 30 -63 55 -123
55 -133 0 -10 14 -39 30 -65 17 -26 30 -55 30 -64 0 -14 30 -86 51 -123 5 -8
17 -31 28 -50 22 -40 56 -72 103 -96 18 -9 47 -27 63 -39 17 -12 38 -25 48
-28 10 -4 32 -37 49 -74 31 -70 33 -109 7 -167 -16 -33 -32 -36 -111 -14 -46
12 -103 18 -175 18 -123 0 -145 -9 -210 -82 -42 -47 -70 -75 -99 -99 -10 -9
-25 -25 -33 -37 -16 -24 -52 -33 -90 -23 -21 6 -26 14 -27 42 -1 19 -2 39 -3
45 -2 21 -80 94 -100 94 -11 0 -22 4 -25 9 -12 18 -97 18 -169 0 -56 -15 -78
-26 -99 -52 -16 -17 -28 -36 -28 -41 0 -5 15 -23 33 -41 35 -34 61 -40 211
-51 88 -7 96 -8 96 -11 0 -2 -8 -12 -17 -24 -36 -43 -94 -71 -167 -80 -136
-18 -166 -28 -172 -58 -4 -17 -16 -32 -35 -40 -24 -10 -28 -18 -25 -42 1 -16
10 -37 20 -47 13 -16 14 -21 3 -30 -7 -6 -14 -30 -16 -54 -1 -23 -4 -44 -6
-46 -6 -6 -49 29 -69 55 -20 27 -29 109 -15 135 8 14 2 18 -36 23 -50 8 -95
45 -95 79 0 11 11 41 25 65 14 23 25 48 25 53 0 25 33 118 41 118 12 0 34 -20
40 -37 3 -8 9 -8 23 2 18 13 18 15 1 32 -16 15 -17 30 -11 117 4 71 12 112 26
139 18 34 27 87 15 87 -2 0 -26 -13 -52 -28 -61 -36 -123 -58 -196 -71 -31 -6
-66 -15 -76 -21 -11 -5 -52 -14 -92 -20 -101 -14 -122 -51 -63 -107 13 -12 26
-34 29 -50 3 -15 12 -41 20 -56 9 -18 11 -34 6 -45 -58 -114 -86 -174 -98
-216 -8 -28 -20 -57 -26 -64 -6 -7 -10 -41 -9 -75 1 -34 2 -89 2 -121 1 -43 7
-66 21 -84 10 -14 19 -40 19 -58 0 -40 12 -73 37 -99 24 -26 113 -202 113
-225 0 -20 41 -60 62 -60 16 0 77 62 79 80 1 6 2 14 3 18 0 5 9 16 19 26 9 10
17 21 17 26 0 4 38 26 84 48 46 22 87 45 91 51 3 6 26 11 50 11 24 0 46 4 49
9 9 13 74 21 266 30 289 14 543 13 565 -2 17 -13 17 -15 -3 -36 -60 -66 -76
-81 -84 -81 -4 0 -8 -6 -8 -14 0 -8 -10 -16 -21 -18 -14 -2 -25 -15 -33 -38
-10 -32 -14 -35 -44 -32 -17 2 -32 -1 -32 -7 0 -6 -7 -8 -15 -5 -8 4 -17 -1
-21 -10 -4 -10 -18 -16 -40 -16 -19 0 -34 -4 -34 -10 0 -5 -22 -12 -49 -16
-65 -8 -69 -12 -80 -69 -5 -27 -14 -51 -20 -53 -6 -2 -11 -10 -11 -18 0 -8 -4
-14 -10 -14 -19 0 -10 -31 19 -62 25 -27 37 -31 117 -40 49 -5 145 -6 214 -3
107 6 255 8 298 3 6 -1 12 -5 12 -10 0 -14 47 -9 53 5 9 24 71 47 110 40 20
-3 35 -10 34 -17 -1 -6 8 -12 20 -14 31 -5 18 -32 -16 -32 -29 0 -68 -19 -41
-20 21 -1 -53 -37 -93 -45 -17 -4 -40 -15 -50 -24 -11 -9 -39 -17 -68 -18 -28
-1 -56 -6 -63 -12 -8 -6 -20 -9 -29 -5 -10 3 -22 -4 -33 -21 -13 -21 -24 -26
-45 -23 -18 3 -30 -2 -38 -14 -12 -20 -24 -20 -225 8 l-99 13 -39 -39 c-21
-22 -46 -40 -55 -40 -30 0 -82 -38 -89 -64 -5 -22 -10 -24 -47 -21 -23 2 -46
4 -52 5 -25 6 -35 -2 -35 -24 0 -14 -5 -28 -10 -31 -6 -4 -8 -11 -5 -16 4 -5
-3 -9 -14 -9 -11 0 -33 -14 -50 -31 -27 -26 -30 -35 -25 -67 12 -72 10 -106
-7 -110 -22 -4 -31 42 -19 95 5 22 7 51 4 64 -3 13 -7 44 -8 68 -1 25 -7 46
-12 48 -5 2 -26 -31 -47 -71 -30 -59 -36 -79 -28 -94 11 -20 -2 -42 -25 -42
-6 0 -14 -7 -18 -15 -3 -9 -19 -15 -41 -15 -19 0 -35 -4 -35 -9 0 -5 -7 -12
-16 -15 -24 -9 -51 19 -58 60 -8 37 -22 43 -41 17 -11 -15 -15 -15 -29 -4 -9
7 -16 19 -16 25 0 6 -16 29 -35 50 -19 22 -35 44 -35 49 0 5 -10 17 -22 26
-26 22 -69 16 -75 -10 -3 -11 -12 -19 -20 -19 -12 0 -14 8 -10 38 4 25 0 50
-13 79 -10 23 -16 44 -12 47 3 3 -2 6 -12 6 -9 0 -20 -8 -23 -17 -4 -10 -11
-21 -16 -25 -9 -5 -13 -23 -16 -65 -1 -7 -12 -13 -26 -13 -33 0 -34 36 -2 51
44 20 62 95 27 117 -16 10 -19 22 -19 74 1 60 0 64 -34 93 -36 31 -45 65 -24
92 5 7 6 21 2 33 -4 11 -2 20 4 20 6 0 11 7 11 16 0 8 -4 12 -10 9 -14 -9 -12
7 6 43 14 30 14 34 -10 75 -14 24 -26 55 -26 69 0 32 -26 44 -40 18 -7 -12 -6
-36 1 -72 5 -29 9 -84 7 -123 -3 -62 -1 -70 15 -67 20 3 21 -6 3 -31 -11 -14
-22 -17 -49 -12 -34 7 -34 6 -29 -22 3 -15 10 -31 16 -35 7 -5 3 -15 -11 -30
-19 -21 -20 -26 -8 -54 11 -27 18 -31 42 -28 15 2 20 1 11 -2 -12 -4 -18 -16
-18 -35 0 -36 -16 -69 -33 -69 -7 0 -25 7 -41 15 -38 20 -45 19 -39 -5 4 -13
-1 -26 -13 -34 -16 -12 -17 -18 -6 -37 12 -24 13 -69 1 -69 -3 0 -20 5 -37 11
l-30 10 19 57 c16 46 17 59 7 67 -7 5 -14 30 -15 54 -1 29 -9 50 -23 63 -11
10 -20 23 -20 28 0 5 -6 8 -12 6 -7 -1 -10 -1 -5 1 14 8 7 52 -10 65 -10 7
-25 26 -33 42 -8 16 -23 34 -33 40 -15 9 -22 7 -34 -12 -9 -12 -21 -22 -28
-22 -16 0 -43 106 -56 215 -5 44 -13 91 -18 105 -6 14 -20 66 -32 115 -29 123
-35 130 -121 155 -40 12 -92 33 -115 46 -52 30 -115 111 -148 190 -13 32 -24
52 -25 43 -1 -35 66 -146 120 -200 49 -48 69 -60 144 -84 47 -15 90 -33 96
-40 13 -16 57 -200 76 -320 22 -142 79 -353 125 -470 42 -105 114 -223 208
-339 58 -71 71 -89 196 -266 163 -229 158 -221 203 -396 23 -88 43 -174 43
-190 2 -25 2 -26 6 -6 3 13 -12 93 -33 177 l-38 153 19 36 c11 20 26 36 33 36
7 0 22 -21 33 -46 12 -25 38 -64 60 -86 35 -36 39 -45 33 -75 l-6 -34 66 7
c43 4 70 3 79 -5 8 -6 16 -8 20 -5 3 3 3 -4 0 -17 -5 -19 -3 -21 15 -17 17 5
31 -4 61 -38 21 -24 44 -44 50 -44 6 0 11 -8 11 -18 0 -30 31 -50 73 -49 28 1
43 -5 55 -20 21 -25 54 -43 81 -43 11 0 24 -6 28 -14 13 -21 49 -36 86 -36 19
0 48 -7 63 -15 16 -8 37 -15 47 -15 18 0 36 -12 65 -43 9 -10 41 -30 70 -44
28 -15 52 -30 52 -34 0 -5 17 -16 37 -24 20 -8 43 -24 50 -35 8 -11 19 -20 25
-20 6 0 32 -23 58 -50 26 -28 56 -50 65 -50 10 0 42 -7 70 -16 41 -13 70 -15
141 -9 61 5 83 10 69 16 -17 7 -16 8 8 8 16 1 27 7 27 15 0 16 53 46 82 46 10
0 29 7 41 14 12 8 38 17 58 19 43 5 59 13 59 33 0 8 10 14 24 14 14 0 33 10
43 22 30 38 51 50 98 59 25 5 57 20 72 34 15 14 35 23 43 20 9 -3 25 2 36 10
10 8 30 15 44 15 27 0 82 18 118 38 12 7 27 10 33 7 5 -4 25 5 44 19 18 14 36
26 39 26 12 0 156 103 156 111 0 5 9 9 19 9 11 0 28 15 41 35 12 19 35 48 51
65 22 22 28 35 24 53 -4 15 -1 30 9 40 18 18 21 37 6 37 -19 0 -10 31 11 38
19 7 21 17 23 103 1 64 7 104 18 126 9 18 19 47 23 64 11 48 44 118 45 94 18
-391 28 -483 56 -542 18 -35 26 -40 109 -69 208 -70 289 -133 379 -298 32 -58
60 -106 63 -106 2 0 -17 41 -44 92 -89 169 -204 265 -379 317 -138 41 -149 75
-149 486 0 236 2 274 17 300 41 72 152 317 180 395 35 98 62 215 78 339 39
283 109 637 134 676 9 13 44 37 78 54 99 47 162 109 208 204 49 103 86 231
106 367 9 58 25 130 36 160 38 107 48 155 48 240 0 57 -5 92 -14 105 -10 14
-13 42 -10 95 2 41 -1 135 -6 209 -8 106 -15 142 -31 168 -11 18 -18 37 -15
42 3 5 7 29 7 53 1 23 5 48 9 53 5 6 4 36 -1 68 -7 44 -6 68 5 100 8 26 16
107 20 210 5 130 9 172 21 183 8 9 18 27 21 42 3 15 10 41 14 57 5 17 12 53
15 80 3 28 14 84 23 125 12 54 16 126 16 260 1 183 0 186 -32 278 -17 51 -32
97 -32 104 0 29 -104 218 -140 253 -22 22 -40 44 -40 51 0 6 -7 18 -17 25 -9
8 -29 41 -44 74 -47 100 -148 284 -192 349 -127 187 -311 363 -445 424 -20 10
-58 30 -85 46 -47 28 -152 70 -217 86 -65 17 -222 84 -243 105 -12 12 -35 37
-51 56 -131 153 -190 200 -371 293 -57 30 -119 65 -137 79 -18 13 -58 33 -88
42 -30 10 -71 28 -91 41 -42 26 -92 42 -169 54 -30 4 -109 20 -175 34 -235 53
-362 60 -445 27z m-479 -181 c23 -13 25 -48 4 -56 -8 -4 -26 1 -40 10 -34 23
-72 20 -98 -7 -22 -24 -129 -57 -184 -57 -21 0 -33 -8 -46 -30 -10 -17 -27
-30 -37 -30 -26 0 -78 -37 -129 -90 -45 -48 -50 -60 -23 -60 32 0 32 -11 -3
-46 -24 -24 -47 -36 -77 -40 -26 -4 -52 -16 -66 -30 -24 -25 -42 -31 -42 -15
0 5 -10 13 -22 17 -15 4 -25 1 -35 -12 -18 -25 -16 -34 7 -34 33 0 37 -30 7
-52 -15 -11 -27 -28 -27 -38 0 -10 -4 -22 -10 -25 -10 -6 -14 -45 -5 -45 15 0
109 52 132 72 23 21 56 26 85 14 18 -8 20 -4 33 76 5 32 12 41 47 58 39 19 88
27 88 14 0 -17 -24 -46 -46 -54 -13 -5 -24 -16 -24 -24 0 -21 42 -25 65 -5 11
9 41 23 68 31 44 14 47 14 47 -2 0 -22 -58 -80 -81 -80 -9 0 -24 -11 -32 -23
-30 -45 -97 -106 -111 -101 -8 3 -19 -3 -26 -15 -6 -12 -16 -21 -22 -21 -17 0
-48 -31 -48 -49 0 -9 -27 -34 -60 -55 -33 -22 -60 -45 -60 -52 0 -7 -10 -15
-22 -17 -13 -2 4 -4 37 -3 85 1 154 -20 161 -51 4 -13 4 -27 0 -30 -5 -6 -153
-24 -186 -23 -52 1 -75 -2 -87 -11 -18 -15 0 -47 29 -51 34 -5 33 -38 -3 -82
-18 -21 -33 -52 -35 -69 -1 -17 -9 -36 -18 -42 -9 -7 -16 -22 -16 -34 0 -12
-20 -48 -45 -79 -82 -104 -90 -116 -88 -124 6 -17 -50 -85 -89 -108 -26 -16
-45 -37 -51 -55 -5 -17 -18 -40 -29 -52 -11 -12 -17 -26 -13 -32 12 -20 54
-12 70 13 11 17 30 27 58 31 47 8 97 41 97 64 0 9 -7 25 -15 35 -8 11 -15 32
-15 48 0 36 83 99 161 121 41 12 65 27 93 59 34 37 39 40 48 24 7 -12 5 -30
-7 -59 -9 -23 -15 -44 -13 -47 1 -3 -8 -6 -20 -8 -19 -3 -23 -8 -18 -27 7 -27
-23 -55 -58 -55 -19 0 -19 0 -1 -14 18 -13 18 -15 1 -50 -30 -64 -10 -84 62
-61 17 6 22 3 22 -9 0 -18 -43 -90 -60 -101 -5 -3 -10 -15 -10 -25 0 -10 -15
-38 -33 -62 -27 -35 -31 -47 -23 -61 8 -12 7 -20 -2 -29 -9 -9 -12 -8 -12 9 0
12 -4 24 -9 28 -16 9 -78 -52 -100 -100 -12 -25 -26 -45 -31 -45 -6 0 -10 -4
-10 -10 0 -5 -14 -39 -32 -75 -29 -62 -36 -69 -87 -92 -34 -14 -69 -23 -88
-21 -22 3 -36 -2 -45 -14 -16 -23 -30 -23 -26 -1 4 24 -29 29 -53 7 -20 -18
-26 -44 -9 -44 12 0 25 -47 21 -75 -5 -39 -21 -41 -47 -7 -14 17 -34 32 -44
32 -9 0 -23 7 -30 15 -28 34 -120 1 -120 -43 0 -19 3 -21 19 -12 11 5 23 14
26 20 8 13 35 1 35 -16 0 -8 -9 -24 -20 -36 -11 -12 -20 -28 -20 -35 0 -7 -7
-13 -17 -13 -9 0 -31 -11 -49 -25 -30 -23 -34 -24 -48 -9 -9 9 -14 19 -11 24
7 12 -15 58 -31 64 -21 8 -45 -45 -32 -68 9 -16 8 -18 -6 -13 -11 4 -20 -3
-31 -23 -9 -17 -19 -30 -23 -30 -10 0 -49 93 -57 135 -7 31 28 125 45 125 14
0 30 68 30 127 0 49 1 52 28 55 24 3 27 8 30 45 3 34 -1 44 -19 53 -20 11 -21
17 -14 73 10 94 39 112 88 57 15 -16 33 -27 40 -24 8 3 24 27 37 54 19 40 21
57 16 104 -4 31 -12 56 -17 56 -5 0 -9 -5 -9 -12 0 -6 -12 -35 -26 -65 -29
-59 -57 -71 -68 -28 -5 21 -11 24 -31 19 -30 -7 -31 3 -10 96 16 68 71 227 86
246 5 6 15 28 23 50 32 91 179 376 228 441 81 108 275 328 369 418 91 86 236
205 252 205 5 0 28 15 50 33 41 32 93 56 132 61 10 1 26 16 35 32 19 35 170
114 212 111 15 0 35 6 45 15 36 31 69 42 158 54 120 15 143 16 166 4z m-260
-702 l34 -28 -26 -23 c-25 -24 -124 -49 -158 -40 -9 2 -30 -3 -46 -11 -24 -13
-30 -22 -30 -48 0 -32 -1 -33 -46 -36 -43 -3 -47 -1 -53 23 -4 14 -2 34 4 45
6 11 8 25 5 30 -4 6 -3 19 0 30 5 16 15 20 50 20 29 0 61 9 92 26 26 15 58 32
71 39 29 16 58 8 103 -27z m-205 -313 c16 -13 37 -31 47 -40 9 -8 17 -26 17
-40 0 -23 47 -78 55 -65 1 3 11 -2 21 -12 11 -9 33 -18 49 -21 20 -3 13 -5
-21 -6 -28 0 -72 2 -98 5 -40 6 -48 11 -63 41 -8 19 -29 46 -44 61 -32 29 -34
38 -19 76 12 32 20 32 56 1z m-118 -785 c-2 -22 -7 -30 -21 -30 -12 0 -17 -6
-15 -17 2 -12 -7 -24 -27 -34 -16 -9 -39 -34 -50 -56 -25 -50 -69 -101 -119
-139 l-39 -29 5 43 c7 52 23 72 54 72 17 0 28 8 34 26 6 14 17 32 25 40 8 9
15 23 15 32 0 32 38 80 68 87 17 3 33 13 36 21 3 8 12 14 21 14 11 0 15 -9 13
-30z m3736 -2222 c8 -13 24 -54 37 -93 13 -38 31 -82 41 -96 24 -32 41 -147
33 -219 -14 -126 -11 -118 -76 -197 -28 -35 -52 4 -29 47 9 17 41 170 41 195
0 45 -16 134 -27 150 -8 11 -14 28 -14 38 0 11 -11 41 -25 69 -14 27 -25 64
-25 82 0 51 20 61 44 24z m66 -791 c0 -46 -49 -124 -103 -164 -49 -37 -106
-67 -113 -61 -1 2 2 23 8 48 6 25 15 61 19 81 5 20 19 51 32 70 20 31 28 35
82 40 33 3 63 6 68 7 4 1 7 -8 7 -21z m-1816 -769 c-6 -10 -5 -10 8 -1 12 11
19 9 37 -6 19 -16 21 -26 16 -67 -3 -27 -10 -51 -16 -55 -6 -3 -29 -3 -52 1
-22 5 -47 6 -54 3 -19 -7 -16 7 5 23 15 12 14 13 -15 14 -17 0 -35 5 -38 11
-4 6 -14 8 -22 5 -9 -4 -22 -1 -30 5 -10 9 -20 9 -39 0 -34 -15 -34 -16 -34
28 0 29 -5 41 -17 44 -10 3 44 5 120 6 108 1 137 -2 131 -11z"/>
<path d="M1339 7983 c-69 -76 -193 -273 -172 -273 4 0 19 9 33 20 14 11 31 20
38 20 24 0 118 110 148 172 28 58 28 60 9 74 -25 19 -27 18 -56 -13z"/>
<path d="M4061 7046 c-7 -8 -35 -17 -64 -21 -29 -4 -69 -15 -89 -26 -21 -10
-49 -21 -63 -23 -13 -3 -30 -8 -36 -12 -6 -3 -31 -6 -55 -6 -25 1 -57 -4 -72
-10 -15 -6 -34 -12 -44 -12 -18 -1 -32 -12 -34 -27 -1 -5 -2 -13 -3 -19 0 -5
-10 -10 -21 -10 -25 0 -93 -42 -113 -70 -8 -11 -18 -20 -23 -19 -16 5 -82 -41
-87 -60 -6 -24 -44 -49 -82 -53 -24 -2 -33 3 -54 35 -22 33 -26 36 -41 22 -23
-20 -37 -19 -50 5 -8 15 -17 19 -31 15 -14 -5 -29 0 -45 16 -13 12 -24 19 -24
15 0 -5 -6 -3 -14 3 -10 8 -16 9 -21 1 -9 -14 -25 -3 -25 18 0 13 -10 17 -37
19 -21 1 -54 4 -73 8 -19 3 -80 8 -135 11 -55 2 -113 9 -129 14 -16 6 -65 10
-110 10 -63 0 -96 -6 -149 -26 -37 -14 -66 -28 -63 -31 2 -3 121 -4 264 -4
248 2 259 1 277 -19 10 -11 27 -20 38 -20 26 0 147 -78 147 -95 0 -6 9 -20 20
-30 11 -10 23 -36 27 -58 7 -49 27 -57 58 -23 13 14 33 26 43 26 11 0 25 6 31
14 22 26 105 39 211 31 89 -6 103 -10 150 -41 29 -19 54 -34 56 -34 2 0 4 9 4
21 0 60 94 189 165 225 45 23 120 50 210 74 152 42 713 45 834 5 29 -9 56 -12
74 -7 28 7 28 8 10 28 -21 25 -121 74 -150 74 -11 0 -56 18 -98 41 l-78 41
-146 -7 c-183 -9 -256 -9 -307 -1 -30 5 -44 3 -53 -8z"/>
<path d="M4240 6842 c-25 -1 -101 -9 -170 -18 -116 -14 -132 -19 -230 -67
-103 -51 -106 -53 -142 -117 -47 -82 -55 -125 -46 -275 8 -161 24 -268 41
-280 8 -6 17 -26 21 -45 16 -82 40 -166 52 -180 6 -8 15 -30 19 -47 3 -18 10
-35 15 -38 5 -3 20 -30 33 -59 34 -74 97 -151 161 -197 42 -30 65 -39 115 -45
34 -4 79 -15 99 -25 31 -17 60 -19 217 -19 157 1 185 3 220 20 22 11 61 19 86
20 77 0 167 52 203 116 9 16 28 49 41 73 14 24 25 59 25 78 0 20 8 41 21 54
14 14 24 42 29 83 5 33 13 77 19 96 6 19 11 51 11 71 0 20 7 53 15 72 16 38
24 234 11 255 -3 6 -1 32 5 59 23 92 5 224 -38 281 -14 18 -44 41 -66 51 -23
11 -60 27 -82 36 -78 34 -460 60 -685 47z"/>
<path d="M2380 6724 c-168 -18 -211 -26 -380 -72 -176 -48 -267 -90 -331 -154
-60 -60 -83 -128 -76 -221 13 -171 26 -285 35 -307 5 -14 18 -52 27 -85 40
-135 108 -324 141 -390 78 -155 154 -194 379 -195 131 0 324 24 367 46 15 8
36 14 46 14 11 0 57 19 102 42 64 32 93 54 131 100 27 33 55 74 63 91 7 18 20
38 29 46 10 8 17 28 17 48 0 19 5 43 11 54 20 38 41 123 49 202 5 51 14 85 26
98 23 25 35 169 22 264 -6 39 -7 100 -4 137 5 60 4 68 -13 78 -11 5 -23 20
-27 32 -13 43 -48 78 -113 116 -61 36 -77 40 -201 55 -75 10 -144 16 -155 16
-11 -1 -76 -8 -145 -15z"/>
<path d="M5246 2276 c0 -45 4 -110 8 -146 11 -96 -8 -157 -46 -151 -5 0 -8 -6
-8 -14 0 -8 -6 -14 -12 -13 -9 2 -12 -9 -10 -39 3 -33 -1 -44 -20 -57 -16 -12
-18 -16 -7 -16 12 0 15 -7 11 -25 -5 -28 -22 -44 -22 -21 0 23 -16 28 -45 14
l-27 -12 7 -86 c6 -74 4 -88 -10 -100 -16 -13 -17 -11 -14 28 3 23 2 42 -2 42
-8 0 -21 -124 -14 -142 3 -8 -2 -32 -11 -54 -23 -53 -34 -104 -23 -104 5 0 9
-7 9 -15 0 -9 11 -20 25 -25 19 -7 25 -17 25 -39 0 -16 -4 -33 -10 -36 -6 -4
-4 -19 5 -42 18 -44 18 -43 0 -43 -8 0 -15 6 -15 14 0 9 -7 12 -20 9 -21 -5
-30 -53 -10 -53 6 0 10 -7 10 -15 0 -8 5 -15 10 -15 6 0 10 -11 10 -24 0 -13
11 -34 25 -47 22 -22 24 -30 18 -80 -5 -51 -3 -58 16 -68 16 -9 21 -9 21 0 0
7 3 10 6 6 3 -3 3 -11 -1 -17 -4 -6 -9 -33 -10 -58 -3 -46 -3 -46 10 -16 7 17
19 34 28 37 8 3 18 18 21 34 4 15 20 45 37 65 16 20 29 49 29 65 1 15 9 46 20
68 11 22 19 45 20 51 0 6 7 17 15 24 8 7 15 29 15 50 0 21 8 48 18 61 21 28
62 145 62 178 0 13 9 34 20 48 11 14 20 35 20 47 0 12 7 31 15 43 35 50 57
181 58 349 1 143 -1 166 -18 198 -11 20 -23 36 -27 36 -14 0 -49 34 -64 62 -9
17 -24 28 -41 30 -22 2 -30 11 -39 37 -7 22 -21 38 -40 46 l-29 12 1 -81z"/>
<path d="M2276 1558 c-27 -38 -19 -92 26 -189 23 -49 48 -89 55 -89 7 0 13 -8
13 -17 0 -27 33 -106 52 -125 10 -10 18 -30 18 -44 0 -15 16 -52 35 -84 19
-32 35 -61 35 -65 0 -4 11 -18 25 -31 l25 -23 -5 31 c-7 39 -30 94 -43 102 -5
3 -15 28 -22 56 -8 33 -18 51 -31 55 -10 4 -19 12 -19 19 0 6 -9 30 -20 51
-30 58 -97 262 -105 317 -7 57 -18 66 -39 36z"/>
</g>
</svg>
